<svg width="112" height="32" viewBox="0 0 112 32" fill="none" xmlns="http://www.w3.org/2000/svg">
<rect width="112" height="32" fill="#F5F5F5"/>
<path d="M-2757 -800C-2757 -801.105 -2756.1 -802 -2755 -802H5364C5365.1 -802 5366 -801.105 5366 -800V3218C5366 3219.1 5365.1 3220 5364 3220H-2755C-2756.1 3220 -2757 3219.1 -2757 3218V-800Z" fill="white"/>
<path d="M-2755 -801H5364V-803H-2755V-801ZM5365 -800V3218H5367V-800H5365ZM5364 3219H-2755V3221H5364V3219ZM-2756 3218V-800H-2758V3218H-2756ZM-2755 3219C-2755.55 3219 -2756 3218.55 -2756 3218H-2758C-2758 3219.66 -2756.66 3221 -2755 3221V3219ZM5365 3218C5365 3218.55 5364.55 3219 5364 3219V3221C5365.66 3221 5367 3219.66 5367 3218H5365ZM5364 -801C5364.55 -801 5365 -800.552 5365 -800H5367C5367 -801.657 5365.66 -803 5364 -803V-801ZM-2755 -803C-2756.66 -803 -2758 -801.657 -2758 -800H-2756C-2756 -800.552 -2755.55 -801 -2755 -801V-803Z" fill="black" fill-opacity="0.1"/>
<g clip-path="url(#clip0_0_1)">
<rect width="1440" height="1024" transform="translate(-658 -244)" fill="#F5F5F5"/>
<rect x="-334" y="-30" width="802" height="169" rx="8" fill="white"/>
<rect y="16" width="8" height="16" fill="#D0EAE3"/>
<rect x="13" y="10" width="8" height="22" fill="#D0EAE3"/>
<rect x="26" width="8" height="32" fill="#D0EAE3"/>
<rect x="39" y="15" width="8" height="17" fill="#D0EAE3"/>
<rect x="52" y="22" width="8" height="10" fill="#D0EAE3"/>
<rect x="65" y="19" width="8" height="13" fill="#D0EAE3"/>
<rect x="78" y="8" width="8" height="24" fill="#D0EAE3"/>
<rect x="91" y="18" width="8" height="14" fill="#D0EAE3"/>
<rect x="104" y="24" width="8" height="8" fill="#D0EAE3"/>
</g>
<defs>
<clipPath id="clip0_0_1">
<rect width="1440" height="1024" fill="white" transform="translate(-658 -244)"/>
</clipPath>
</defs>
</svg>
