<svg width="24" height="24" viewBox="0 0 24 24" fill="none" xmlns="http://www.w3.org/2000/svg">
<rect width="24" height="24" fill="#F5F5F5"/>
<path d="M-2125 -1016C-2125 -1017.1 -2124.1 -1018 -2123 -1018H5996C5997.1 -1018 5998 -1017.1 5998 -1016V3002C5998 3003.1 5997.1 3004 5996 3004H-2123C-2124.1 3004 -2125 3003.1 -2125 3002V-1016Z" fill="white"/>
<path d="M-2123 -1017H5996V-1019H-2123V-1017ZM5997 -1016V3002H5999V-1016H5997ZM5996 3003H-2123V3005H5996V3003ZM-2124 3002V-1016H-2126V3002H-2124ZM-2123 3003C-2123.55 3003 -2124 3002.55 -2124 3002H-2126C-2126 3003.66 -2124.66 3005 -2123 3005V3003ZM5997 3002C5997 3002.55 5996.55 3003 5996 3003V3005C5997.66 3005 5999 3003.66 5999 3002H5997ZM5996 -1017C5996.55 -1017 5997 -1016.55 5997 -1016H5999C5999 -1017.66 5997.66 -1019 5996 -1019V-1017ZM-2123 -1019C-2124.66 -1019 -2126 -1017.66 -2126 -1016H-2124C-2124 -1016.55 -2123.55 -1017 -2123 -1017V-1019Z" fill="black" fill-opacity="0.1"/>
<g clip-path="url(#clip0_0_1)">
<rect width="1440" height="1024" transform="translate(-26 -460)" fill="#F5F5F5"/>
<rect width="293" height="1024" transform="translate(-26 -457)" fill="white"/>
<rect x="-26" y="-34" width="293" height="266" fill="white"/>
<rect x="-25.5" y="-33.5" width="292" height="265" stroke="black" stroke-opacity="0.1"/>
<path d="M8.27 22.75H4.23C2.22 22.75 1.25 21.82 1.25 19.9V4.1C1.25 2.18 2.23 1.25 4.23 1.25H8.27C10.28 1.25 11.25 2.18 11.25 4.1V19.9C11.25 21.82 10.27 22.75 8.27 22.75ZM4.23 2.75C2.96 2.75 2.75 3.09 2.75 4.1V19.9C2.75 20.91 2.96 21.25 4.23 21.25H8.27C9.54 21.25 9.75 20.91 9.75 19.9V4.1C9.75 3.09 9.54 2.75 8.27 2.75H4.23Z" fill="#272828"/>
<path d="M19.77 13.75H15.73C13.72 13.75 12.75 12.82 12.75 10.9V4.1C12.75 2.18 13.73 1.25 15.73 1.25H19.77C21.78 1.25 22.75 2.18 22.75 4.1V10.9C22.75 12.82 21.77 13.75 19.77 13.75ZM15.73 2.75C14.46 2.75 14.25 3.09 14.25 4.1V10.9C14.25 11.91 14.46 12.25 15.73 12.25H19.77C21.04 12.25 21.25 11.91 21.25 10.9V4.1C21.25 3.09 21.04 2.75 19.77 2.75H15.73Z" fill="#272828"/>
<path d="M19.77 22.75H15.73C13.72 22.75 12.75 21.82 12.75 19.9V18.1C12.75 16.18 13.73 15.25 15.73 15.25H19.77C21.78 15.25 22.75 16.18 22.75 18.1V19.9C22.75 21.82 21.77 22.75 19.77 22.75ZM15.73 16.75C14.46 16.75 14.25 17.09 14.25 18.1V19.9C14.25 20.91 14.46 21.25 15.73 21.25H19.77C21.04 21.25 21.25 20.91 21.25 19.9V18.1C21.25 17.09 21.04 16.75 19.77 16.75H15.73Z" fill="#272828"/>
</g>
<defs>
<clipPath id="clip0_0_1">
<rect width="1440" height="1024" fill="white" transform="translate(-26 -460)"/>
</clipPath>
</defs>
</svg>
