<svg width="32" height="32" viewBox="0 0 32 32" fill="none" xmlns="http://www.w3.org/2000/svg">
<rect opacity="0.1" width="32" height="32" rx="8" fill="#1FCB4F"/>
<path d="M21.0059 13.75C21.4891 13.75 21.8809 13.3582 21.8809 12.875C21.8809 12.3918 21.4891 12 21.0059 12C20.5226 12 20.1309 12.3918 20.1309 12.875C20.1309 13.3582 20.5226 13.75 21.0059 13.75Z" fill="#1FCB4F"/>
<path d="M21.0059 19C21.4891 19 21.8809 18.6082 21.8809 18.125C21.8809 17.6418 21.4891 17.25 21.0059 17.25C20.5226 17.25 20.1309 17.6418 20.1309 18.125C20.1309 18.6082 20.5226 19 21.0059 19Z" fill="#1FCB4F"/>
<path d="M23.2812 16.375C23.7645 16.375 24.1562 15.9832 24.1562 15.5C24.1562 15.0168 23.7645 14.625 23.2812 14.625C22.798 14.625 22.4062 15.0168 22.4062 15.5C22.4062 15.9832 22.798 16.375 23.2812 16.375Z" fill="#1FCB4F"/>
<path d="M11.9502 13.75C12.4334 13.75 12.8252 13.3582 12.8252 12.875C12.8252 12.3918 12.4334 12 11.9502 12C11.4669 12 11.0752 12.3918 11.0752 12.875C11.0752 13.3582 11.4669 13.75 11.9502 13.75Z" fill="#1FCB4F"/>
<path d="M11.9502 19C12.4334 19 12.8252 18.6082 12.8252 18.125C12.8252 17.6418 12.4334 17.25 11.9502 17.25C11.4669 17.25 11.0752 17.6418 11.0752 18.125C11.0752 18.6082 11.4669 19 11.9502 19Z" fill="#1FCB4F"/>
<path d="M9.6748 16.375C10.1581 16.375 10.5498 15.9832 10.5498 15.5C10.5498 15.0168 10.1581 14.625 9.6748 14.625C9.19156 14.625 8.7998 15.0168 8.7998 15.5C8.7998 15.9832 9.19156 16.375 9.6748 16.375Z" fill="#1FCB4F"/>
<path d="M19.9121 10.4248C20.3954 10.4248 20.7871 10.0331 20.7871 9.5498C20.7871 9.06656 20.3954 8.6748 19.9121 8.6748C19.4289 8.6748 19.0371 9.06656 19.0371 9.5498C19.0371 10.0331 19.4289 10.4248 19.9121 10.4248Z" fill="#1FCB4F"/>
<path d="M13.0869 10.4248C13.5702 10.4248 13.9619 10.0331 13.9619 9.5498C13.9619 9.06656 13.5702 8.6748 13.0869 8.6748C12.6037 8.6748 12.2119 9.06656 12.2119 9.5498C12.2119 10.0331 12.6037 10.4248 13.0869 10.4248Z" fill="#1FCB4F"/>
<path d="M16.5439 11.125C17.0272 11.125 17.4189 10.7332 17.4189 10.25C17.4189 9.76675 17.0272 9.375 16.5439 9.375C16.0607 9.375 15.6689 9.76675 15.6689 10.25C15.6689 10.7332 16.0607 11.125 16.5439 11.125Z" fill="#1FCB4F"/>
<path d="M19.9121 22.5C20.3954 22.5 20.7871 22.1082 20.7871 21.625C20.7871 21.1418 20.3954 20.75 19.9121 20.75C19.4289 20.75 19.0371 21.1418 19.0371 21.625C19.0371 22.1082 19.4289 22.5 19.9121 22.5Z" fill="#1FCB4F"/>
<path d="M13.0869 22.5C13.5702 22.5 13.9619 22.1082 13.9619 21.625C13.9619 21.1418 13.5702 20.75 13.0869 20.75C12.6037 20.75 12.2119 21.1418 12.2119 21.625C12.2119 22.1082 12.6037 22.5 13.0869 22.5Z" fill="#1FCB4F"/>
<path d="M16.5439 21.7998C17.0272 21.7998 17.4189 21.4081 17.4189 20.9248C17.4189 20.4416 17.0272 20.0498 16.5439 20.0498C16.0607 20.0498 15.6689 20.4416 15.6689 20.9248C15.6689 21.4081 16.0607 21.7998 16.5439 21.7998Z" fill="#1FCB4F"/>
<path d="M18.0312 13.9688C18.6353 13.9688 19.125 13.4791 19.125 12.875C19.125 12.2709 18.6353 11.7812 18.0312 11.7812C17.4272 11.7812 16.9375 12.2709 16.9375 12.875C16.9375 13.4791 17.4272 13.9688 18.0312 13.9688Z" fill="#1FCB4F"/>
<path d="M14.9688 13.9688C15.5728 13.9688 16.0625 13.4791 16.0625 12.875C16.0625 12.2709 15.5728 11.7812 14.9688 11.7812C14.3647 11.7812 13.875 12.2709 13.875 12.875C13.875 13.4791 14.3647 13.9688 14.9688 13.9688Z" fill="#1FCB4F"/>
<path d="M19.5625 16.5938C20.1666 16.5938 20.6562 16.1041 20.6562 15.5C20.6562 14.8959 20.1666 14.4062 19.5625 14.4062C18.9584 14.4062 18.4688 14.8959 18.4688 15.5C18.4688 16.1041 18.9584 16.5938 19.5625 16.5938Z" fill="#1FCB4F"/>
<path d="M13.4375 16.5938C14.0416 16.5938 14.5312 16.1041 14.5312 15.5C14.5312 14.8959 14.0416 14.4062 13.4375 14.4062C12.8334 14.4062 12.3438 14.8959 12.3438 15.5C12.3438 16.1041 12.8334 16.5938 13.4375 16.5938Z" fill="#1FCB4F"/>
<path d="M14.9688 19.2188C15.5728 19.2188 16.0625 18.7291 16.0625 18.125C16.0625 17.5209 15.5728 17.0312 14.9688 17.0312C14.3647 17.0312 13.875 17.5209 13.875 18.125C13.875 18.7291 14.3647 19.2188 14.9688 19.2188Z" fill="#1FCB4F"/>
<path d="M18.0312 19.2188C18.6353 19.2188 19.125 18.7291 19.125 18.125C19.125 17.5209 18.6353 17.0312 18.0312 17.0312C17.4272 17.0312 16.9375 17.5209 16.9375 18.125C16.9375 18.7291 17.4272 19.2188 18.0312 19.2188Z" fill="#1FCB4F"/>
<path d="M16.5005 7.91402C16.0717 7.91402 15.7305 7.57277 15.7305 7.14402C15.7305 6.71527 16.0717 6.37402 16.5005 6.37402C16.9292 6.37402 17.2705 6.71527 17.2705 7.14402C17.2705 7.57277 16.9292 7.91402 16.5005 7.91402Z" fill="#1FCB4F"/>
<path d="M21.0947 8.1499C20.7272 8.1499 20.4297 7.8524 20.4297 7.49365C20.4297 7.1349 20.7272 6.8374 21.0859 6.8374C21.4447 6.8374 21.7509 7.1349 21.7509 7.49365C21.7509 7.8524 21.4622 8.1499 21.0947 8.1499Z" fill="#1FCB4F"/>
<path d="M11.9062 8.1499C11.5475 8.1499 11.25 7.8524 11.25 7.49365C11.25 7.1349 11.5388 6.8374 11.9062 6.8374H11.915C12.2738 6.8374 12.5713 7.1349 12.5713 7.49365C12.5713 7.8524 12.2737 8.1499 11.9062 8.1499Z" fill="#1FCB4F"/>
<path d="M16.5005 24.5825C16.0717 24.5825 15.7305 24.2412 15.7305 23.8125C15.7305 23.3837 16.0717 23.0425 16.5005 23.0425C16.9292 23.0425 17.2705 23.3837 17.2705 23.8125C17.2705 24.2412 16.9292 24.5825 16.5005 24.5825Z" fill="#1FCB4F"/>
<path d="M21.0947 24.1187C20.7272 24.1187 20.4297 23.8212 20.4297 23.4624C20.4297 23.1037 20.7272 22.8062 21.0859 22.8062C21.4447 22.8062 21.7509 23.1037 21.7509 23.4624C21.7509 23.8212 21.4622 24.1187 21.0947 24.1187Z" fill="#1FCB4F"/>
<path d="M11.9062 24.1187C11.5475 24.1187 11.25 23.8212 11.25 23.4624C11.25 23.1037 11.5388 22.8062 11.9062 22.8062H11.915C12.2738 22.8062 12.5713 23.1037 12.5713 23.4624C12.5713 23.8212 12.2737 24.1187 11.9062 24.1187Z" fill="#1FCB4F"/>
<path d="M7.35592 16.2705C6.93592 16.2705 6.58594 15.9292 6.58594 15.5092V15.5005C6.58594 15.0805 6.92717 14.7305 7.35592 14.7305C7.78467 14.7305 8.12592 15.0717 8.12592 15.5005C8.12592 15.9292 7.77592 16.2705 7.35592 16.2705Z" fill="#1FCB4F"/>
<path d="M9.28125 20.5312C8.9225 20.5312 8.625 20.2425 8.625 19.875V19.8662C8.625 19.5075 8.9225 19.21 9.28125 19.21C9.64 19.21 9.9375 19.5075 9.9375 19.8662C9.9375 20.225 9.64 20.5312 9.28125 20.5312Z" fill="#1FCB4F"/>
<path d="M9.28125 11.79C8.9225 11.79 8.625 11.4925 8.625 11.1338C8.625 10.775 8.9225 10.4775 9.28125 10.4775C9.64 10.4775 9.9375 10.7663 9.9375 11.125V11.1338C9.9375 11.4925 9.64 11.79 9.28125 11.79Z" fill="#1FCB4F"/>
<path d="M25.688 16.27C25.268 16.27 24.918 15.9287 24.918 15.5087V15.5C24.918 15.08 25.2592 14.73 25.688 14.73C26.1167 14.73 26.458 15.0712 26.458 15.5C26.458 15.9287 26.108 16.27 25.688 16.27Z" fill="#1FCB4F"/>
<path d="M23.7627 20.5312C23.4039 20.5312 23.1064 20.2425 23.1064 19.875V19.8662C23.1064 19.5075 23.4039 19.21 23.7627 19.21C24.1214 19.21 24.4189 19.5075 24.4189 19.8662C24.4189 20.225 24.1214 20.5312 23.7627 20.5312Z" fill="#1FCB4F"/>
<path d="M23.7627 11.79C23.4039 11.79 23.1064 11.4925 23.1064 11.1338C23.1064 10.775 23.4039 10.4775 23.7627 10.4775C24.1214 10.4775 24.4189 10.7663 24.4189 11.1338V11.1425C24.4189 11.4925 24.1214 11.79 23.7627 11.79Z" fill="#1FCB4F"/>
</svg>
