<svg width="24" height="24" viewBox="0 0 24 24" fill="none" xmlns="http://www.w3.org/2000/svg">
<rect width="24" height="24" fill="#F5F5F5"/>
<path d="M-2125 -1146C-2125 -1147.1 -2124.1 -1148 -2123 -1148H5996C5997.1 -1148 5998 -1147.1 5998 -1146V2872C5998 2873.1 5997.1 2874 5996 2874H-2123C-2124.1 2874 -2125 2873.1 -2125 2872V-1146Z" fill="white"/>
<path d="M-2123 -1147H5996V-1149H-2123V-1147ZM5997 -1146V2872H5999V-1146H5997ZM5996 2873H-2123V2875H5996V2873ZM-2124 2872V-1146H-2126V2872H-2124ZM-2123 2873C-2123.55 2873 -2124 2872.55 -2124 2872H-2126C-2126 2873.66 -2124.66 2875 -2123 2875V2873ZM5997 2872C5997 2872.55 5996.55 2873 5996 2873V2875C5997.66 2875 5999 2873.66 5999 2872H5997ZM5996 -1147C5996.55 -1147 5997 -1146.55 5997 -1146H5999C5999 -1147.66 5997.66 -1149 5996 -1149V-1147ZM-2123 -1149C-2124.66 -1149 -2126 -1147.66 -2126 -1146H-2124C-2124 -1146.55 -2123.55 -1147 -2123 -1147V-1149Z" fill="black" fill-opacity="0.1"/>
<g clip-path="url(#clip0_0_1)">
<rect width="1440" height="1024" transform="translate(-26 -590)" fill="#F5F5F5"/>
<rect width="293" height="1024" transform="translate(-26 -587)" fill="white"/>
<rect x="-26" y="-164" width="293" height="266" fill="white"/>
<rect x="-25.5" y="-163.5" width="292" height="265" stroke="black" stroke-opacity="0.1"/>
<path d="M12 12.75C8.83 12.75 6.25 10.17 6.25 7C6.25 3.83 8.83 1.25 12 1.25C15.17 1.25 17.75 3.83 17.75 7C17.75 10.17 15.17 12.75 12 12.75ZM12 2.75C9.66 2.75 7.75 4.66 7.75 7C7.75 9.34 9.66 11.25 12 11.25C14.34 11.25 16.25 9.34 16.25 7C16.25 4.66 14.34 2.75 12 2.75Z" fill="#272828"/>
<path d="M20.5901 22.75C20.1801 22.75 19.8401 22.41 19.8401 22C19.8401 18.55 16.3202 15.75 12.0002 15.75C7.68015 15.75 4.16016 18.55 4.16016 22C4.16016 22.41 3.82016 22.75 3.41016 22.75C3.00016 22.75 2.66016 22.41 2.66016 22C2.66016 17.73 6.85015 14.25 12.0002 14.25C17.1502 14.25 21.3401 17.73 21.3401 22C21.3401 22.41 21.0001 22.75 20.5901 22.75Z" fill="#272828"/>
</g>
<defs>
<clipPath id="clip0_0_1">
<rect width="1440" height="1024" fill="white" transform="translate(-26 -590)"/>
</clipPath>
</defs>
</svg>
