<svg width="66" height="26" viewBox="0 0 66 26" fill="none" xmlns="http://www.w3.org/2000/svg">
<path d="M0 11.125C3.72046 11.125 3.56757 6.5 6.42162 6.5C9.27568 6.5 10.4988 24.5 12.8942 24.5C15.2896 24.5 16.5127 16.25 18.5514 16.25C20.59 16.25 20.539 9.8125 23.8008 9.8125C27.0625 9.8125 27.6741 11.125 30.3243 11.125C32.9745 11.125 32.9745 3.0155 35.5737 3.0155C38.173 3.0155 37.8672 21.375 41.2309 21.375C44.5946 21.375 44.9513 15.5625 46.888 15.5625C48.8247 15.5625 49.3344 1.5 52.851 1.5C56.3676 1.5 55.3483 22.6875 58.9668 22.6875C62.5853 22.6875 61.3622 11.125 66 11.125" stroke="#FFC01E" stroke-width="2"/>
</svg>
