<svg width="24" height="24" viewBox="0 0 24 24" fill="none" xmlns="http://www.w3.org/2000/svg">
<rect width="24" height="24" fill="#F5F5F5"/>
<path d="M-2125 -1081C-2125 -1082.1 -2124.1 -1083 -2123 -1083H5996C5997.1 -1083 5998 -1082.1 5998 -1081V2937C5998 2938.1 5997.1 2939 5996 2939H-2123C-2124.1 2939 -2125 2938.1 -2125 2937V-1081Z" fill="white"/>
<path d="M-2123 -1082H5996V-1084H-2123V-1082ZM5997 -1081V2937H5999V-1081H5997ZM5996 2938H-2123V2940H5996V2938ZM-2124 2937V-1081H-2126V2937H-2124ZM-2123 2938C-2123.55 2938 -2124 2937.55 -2124 2937H-2126C-2126 2938.66 -2124.66 2940 -2123 2940V2938ZM5997 2937C5997 2937.55 5996.55 2938 5996 2938V2940C5997.66 2940 5999 2938.66 5999 2937H5997ZM5996 -1082C5996.55 -1082 5997 -1081.55 5997 -1081H5999C5999 -1082.66 5997.66 -1084 5996 -1084V-1082ZM-2123 -1084C-2124.66 -1084 -2126 -1082.66 -2126 -1081H-2124C-2124 -1081.55 -2123.55 -1082 -2123 -1082V-1084Z" fill="black" fill-opacity="0.1"/>
<g clip-path="url(#clip0_0_1)">
<rect width="1440" height="1024" transform="translate(-26 -525)" fill="#F5F5F5"/>
<rect width="293" height="1024" transform="translate(-26 -522)" fill="white"/>
<rect x="-26" y="-99" width="293" height="266" fill="white"/>
<rect x="-25.5" y="-98.5" width="292" height="265" stroke="black" stroke-opacity="0.1"/>
<path d="M13.05 16.2502H11.17C9.84001 16.2502 8.75 15.1302 8.75 13.7502C8.75 13.3402 9.09 13.0002 9.5 13.0002C9.91 13.0002 10.25 13.3402 10.25 13.7502C10.25 14.3002 10.66 14.7502 11.17 14.7502H13.05C13.44 14.7502 13.75 14.4002 13.75 13.9702C13.75 13.4302 13.6 13.3502 13.26 13.2302L10.25 12.1802C9.61 11.9602 8.75 11.4902 8.75 10.0202C8.75 8.77023 9.74001 7.74023 10.95 7.74023H12.83C14.16 7.74023 15.25 8.86023 15.25 10.2402C15.25 10.6502 14.91 10.9902 14.5 10.9902C14.09 10.9902 13.75 10.6502 13.75 10.2402C13.75 9.69023 13.34 9.24023 12.83 9.24023H10.95C10.56 9.24023 10.25 9.59023 10.25 10.0202C10.25 10.5602 10.4 10.6402 10.74 10.7602L13.75 11.8102C14.39 12.0302 15.25 12.5002 15.25 13.9702C15.25 15.2302 14.26 16.2502 13.05 16.2502Z" fill="#272828"/>
<path d="M12 17.25C11.59 17.25 11.25 16.91 11.25 16.5V7.5C11.25 7.09 11.59 6.75 12 6.75C12.41 6.75 12.75 7.09 12.75 7.5V16.5C12.75 16.91 12.41 17.25 12 17.25Z" fill="#272828"/>
<path d="M12 22.75C6.07 22.75 1.25 17.93 1.25 12C1.25 6.07 6.07 1.25 12 1.25C12.41 1.25 12.75 1.59 12.75 2C12.75 2.41 12.41 2.75 12 2.75C6.9 2.75 2.75 6.9 2.75 12C2.75 17.1 6.9 21.25 12 21.25C17.1 21.25 21.25 17.1 21.25 12C21.25 11.59 21.59 11.25 22 11.25C22.41 11.25 22.75 11.59 22.75 12C22.75 17.93 17.93 22.75 12 22.75Z" fill="#272828"/>
<path d="M21 7.75H17C16.59 7.75 16.25 7.41 16.25 7V3C16.25 2.59 16.59 2.25 17 2.25C17.41 2.25 17.75 2.59 17.75 3V6.25H21C21.41 6.25 21.75 6.59 21.75 7C21.75 7.41 21.41 7.75 21 7.75Z" fill="#272828"/>
<path d="M16.9995 7.75043C16.8095 7.75043 16.6195 7.68043 16.4695 7.53043C16.1795 7.24043 16.1795 6.76043 16.4695 6.47043L21.4695 1.47043C21.7595 1.18043 22.2395 1.18043 22.5295 1.47043C22.8195 1.76043 22.8195 2.24043 22.5295 2.53043L17.5295 7.53043C17.3795 7.68043 17.1895 7.75043 16.9995 7.75043Z" fill="#272828"/>
</g>
<defs>
<clipPath id="clip0_0_1">
<rect width="1440" height="1024" fill="white" transform="translate(-26 -525)"/>
</clipPath>
</defs>
</svg>
