<svg width="24" height="24" viewBox="0 0 24 24" fill="none" xmlns="http://www.w3.org/2000/svg">
<rect width="24" height="24" fill="#F5F5F5"/>
<path d="M-2134 -1538C-2134 -1539.1 -2133.1 -1540 -2132 -1540H5987C5988.1 -1540 5989 -1539.1 5989 -1538V2480C5989 2481.1 5988.1 2482 5987 2482H-2132C-2133.1 2482 -2134 2481.1 -2134 2480V-1538Z" fill="white"/>
<path d="M-2132 -1539H5987V-1541H-2132V-1539ZM5988 -1538V2480H5990V-1538H5988ZM5987 2481H-2132V2483H5987V2481ZM-2133 2480V-1538H-2135V2480H-2133ZM-2132 2481C-2132.55 2481 -2133 2480.55 -2133 2480H-2135C-2135 2481.66 -2133.66 2483 -2132 2483V2481ZM5988 2480C5988 2480.55 5987.55 2481 5987 2481V2483C5988.66 2483 5990 2481.66 5990 2480H5988ZM5987 -1539C5987.55 -1539 5988 -1538.55 5988 -1538H5990C5990 -1539.66 5988.66 -1541 5987 -1541V-1539ZM-2132 -1541C-2133.66 -1541 -2135 -1539.66 -2135 -1538H-2133C-2133 -1538.55 -2132.55 -1539 -2132 -1539V-1541Z" fill="black" fill-opacity="0.1"/>
<g clip-path="url(#clip0_0_1)">
<rect width="1440" height="1024" transform="translate(-35 -982)" fill="#F5F5F5"/>
<rect width="293" height="1024" transform="translate(-35 -979)" fill="white"/>
<path d="M15.2386 22.27H15.1086C10.6686 22.27 8.52855 20.52 8.15855 16.6C8.11855 16.19 8.41855 15.82 8.83855 15.78C9.23855 15.74 9.61855 16.05 9.65855 16.46C9.94855 19.6 11.4286 20.77 15.1186 20.77H15.2486C19.3186 20.77 20.7586 19.33 20.7586 15.26V8.73998C20.7586 4.66998 19.3186 3.22998 15.2486 3.22998H15.1186C11.4086 3.22998 9.92855 4.41998 9.65855 7.61998C9.60855 8.02998 9.25855 8.33998 8.83855 8.29998C8.41855 8.26998 8.11855 7.89998 8.14855 7.48998C8.48855 3.50998 10.6386 1.72998 15.1086 1.72998H15.2386C20.1486 1.72998 22.2486 3.82998 22.2486 8.73998V15.26C22.2486 20.17 20.1486 22.27 15.2386 22.27Z" fill="#272828"/>
<path d="M14.9991 12.75H3.61914C3.20914 12.75 2.86914 12.41 2.86914 12C2.86914 11.59 3.20914 11.25 3.61914 11.25H14.9991C15.4091 11.25 15.7491 11.59 15.7491 12C15.7491 12.41 15.4091 12.75 14.9991 12.75Z" fill="#272828"/>
<path d="M5.84945 16.0998C5.65945 16.0998 5.46945 16.0298 5.31945 15.8798L1.96945 12.5298C1.67945 12.2398 1.67945 11.7598 1.96945 11.4698L5.31945 8.11984C5.60945 7.82984 6.08945 7.82984 6.37945 8.11984C6.66945 8.40984 6.66945 8.88984 6.37945 9.17984L3.55945 11.9998L6.37945 14.8198C6.66945 15.1098 6.66945 15.5898 6.37945 15.8798C6.23945 16.0298 6.03945 16.0998 5.84945 16.0998Z" fill="#272828"/>
</g>
<defs>
<clipPath id="clip0_0_1">
<rect width="1440" height="1024" fill="white" transform="translate(-35 -982)"/>
</clipPath>
</defs>
</svg>
