<svg width="98" height="68" viewBox="0 0 98 68" fill="none" xmlns="http://www.w3.org/2000/svg">
<rect width="98" height="68" fill="#F5F5F5"/>
<path d="M-1431 -734C-1431 -735.105 -1430.1 -736 -1429 -736H6690C6691.1 -736 6692 -735.105 6692 -734V3284C6692 3285.1 6691.1 3286 6690 3286H-1429C-1430.1 3286 -1431 3285.1 -1431 3284V-734Z" fill="white"/>
<path d="M-1429 -735H6690V-737H-1429V-735ZM6691 -734V3284H6693V-734H6691ZM6690 3285H-1429V3287H6690V3285ZM-1430 3284V-734H-1432V3284H-1430ZM-1429 3285C-1429.55 3285 -1430 3284.55 -1430 3284H-1432C-1432 3285.66 -1430.66 3287 -1429 3287V3285ZM6691 3284C6691 3284.55 6690.55 3285 6690 3285V3287C6691.66 3287 6693 3285.66 6693 3284H6691ZM6690 -735C6690.55 -735 6691 -734.552 6691 -734H6693C6693 -735.657 6691.66 -737 6690 -737V-735ZM-1429 -737C-1430.66 -737 -1432 -735.657 -1432 -734H-1430C-1430 -734.552 -1429.55 -735 -1429 -735V-737Z" fill="black" fill-opacity="0.1"/>
<g clip-path="url(#clip0_0_1)">
<rect width="1440" height="860" transform="translate(-896 -40)" fill="#F5F5F5"/>
<path d="M17 0V41H76" stroke="url(#paint0_linear_0_1)" stroke-width="4.74578"/>
<path d="M63.6647 67.8C63.2394 67.8 62.9107 67.6647 62.6787 67.394C62.4467 67.162 62.3307 66.8527 62.3307 66.466V62.406C59.5081 62.174 57.1301 61.536 55.1967 60.492C53.2634 59.4093 51.7941 58.114 50.7887 56.606C49.7834 55.098 49.2421 53.4933 49.1647 51.792C49.1647 51.4827 49.2807 51.212 49.5127 50.98C49.7834 50.7093 50.0927 50.574 50.4407 50.574H53.3987C53.8627 50.574 54.2107 50.69 54.4427 50.922C54.6747 51.154 54.8294 51.4247 54.9067 51.734C55.1387 52.662 55.6221 53.59 56.3567 54.518C57.0914 55.4073 58.1354 56.1613 59.4887 56.78C60.8807 57.36 62.6594 57.65 64.8247 57.65C68.1501 57.65 70.5861 57.07 72.1327 55.91C73.7181 54.7113 74.5107 53.126 74.5107 51.154C74.5107 49.8007 74.0854 48.718 73.2347 47.906C72.4227 47.0553 71.1661 46.3013 69.4647 45.644C67.7634 44.9867 65.5594 44.2713 62.8527 43.498C60.0301 42.686 57.6907 41.7967 55.8347 40.83C53.9787 39.8633 52.5867 38.6647 51.6587 37.234C50.7694 35.8033 50.3247 33.986 50.3247 31.782C50.3247 28.9593 51.3687 26.5427 53.4567 24.532C55.5447 22.4827 58.5027 21.284 62.3307 20.936V16.934C62.3307 16.5473 62.4467 16.238 62.6787 16.006C62.9107 15.7353 63.2394 15.6 63.6647 15.6H65.8687C66.2554 15.6 66.5647 15.7353 66.7967 16.006C67.0674 16.238 67.2027 16.5473 67.2027 16.934V20.994C69.7934 21.3033 71.9587 22.0187 73.6987 23.14C75.4387 24.2613 76.7534 25.5567 77.6427 27.026C78.5321 28.4953 78.9961 29.926 79.0347 31.318C79.0347 31.5887 78.9381 31.8593 78.7447 32.13C78.5514 32.362 78.2421 32.478 77.8167 32.478H74.7427C74.4721 32.478 74.1821 32.4007 73.8727 32.246C73.6021 32.0913 73.3894 31.8013 73.2347 31.376C73.0027 29.7907 72.1134 28.4567 70.5667 27.374C69.0201 26.2913 67.0094 25.75 64.5347 25.75C62.0214 25.75 59.9721 26.2333 58.3867 27.2C56.8401 28.1667 56.0667 29.6747 56.0667 31.724C56.0667 33.0387 56.4341 34.1407 57.1687 35.03C57.9034 35.8807 59.0634 36.6347 60.6487 37.292C62.2341 37.9493 64.3027 38.6453 66.8547 39.38C69.9481 40.2307 72.4807 41.1393 74.4527 42.106C76.4247 43.034 77.8747 44.2133 78.8027 45.644C79.7694 47.036 80.2527 48.834 80.2527 51.038C80.2527 53.242 79.7114 55.156 78.6287 56.78C77.5847 58.404 76.0767 59.6993 74.1047 60.666C72.1714 61.6327 69.8707 62.232 67.2027 62.464V66.466C67.2027 66.8527 67.0674 67.162 66.7967 67.394C66.5647 67.6647 66.2554 67.8 65.8687 67.8H63.6647Z" fill="url(#paint1_linear_0_1)"/>
<path d="M85.9514 65.4915H34V41.2172M85.9514 16.9429H34V41.2172M34 41.2172H74.9617" stroke="url(#paint2_linear_0_1)" stroke-width="4.74578"/>
</g>
<defs>
<linearGradient id="paint0_linear_0_1" x1="64.7206" y1="4.37132" x2="37.4547" y2="43.6076" gradientUnits="userSpaceOnUse">
<stop stop-color="#55E2E9"/>
<stop offset="0.997388" stop-color="#933FFE"/>
</linearGradient>
<linearGradient id="paint1_linear_0_1" x1="87.8251" y1="14.0772" x2="47.6592" y2="49.7802" gradientUnits="userSpaceOnUse">
<stop stop-color="#55E2E9"/>
<stop offset="0.997388" stop-color="#933FFE"/>
</linearGradient>
<linearGradient id="paint2_linear_0_1" x1="76.0195" y1="22.119" x2="41.6503" y2="58.8972" gradientUnits="userSpaceOnUse">
<stop stop-color="#55E2E9"/>
<stop offset="0.997388" stop-color="#933FFE"/>
</linearGradient>
<clipPath id="clip0_0_1">
<rect width="1440" height="860" fill="white" transform="translate(-896 -40)"/>
</clipPath>
</defs>
</svg>
