<svg width="44" height="44" viewBox="0 0 44 44" fill="none" xmlns="http://www.w3.org/2000/svg">
<rect width="44" height="44" fill="#F5F5F5"/>
<path d="M-3471 -597C-3471 -598.105 -3470.1 -599 -3469 -599H4650C4651.1 -599 4652 -598.105 4652 -597V3421C4652 3422.1 4651.1 3423 4650 3423H-3469C-3470.1 3423 -3471 3422.1 -3471 3421V-597Z" fill="white"/>
<path d="M-3469 -598H4650V-600H-3469V-598ZM4651 -597V3421H4653V-597H4651ZM4650 3422H-3469V3424H4650V3422ZM-3470 3421V-597H-3472V3421H-3470ZM-3469 3422C-3469.55 3422 -3470 3421.55 -3470 3421H-3472C-3472 3422.66 -3470.66 3424 -3469 3424V3422ZM4651 3421C4651 3421.55 4650.55 3422 4650 3422V3424C4651.66 3424 4653 3422.66 4653 3421H4651ZM4650 -598C4650.55 -598 4651 -597.552 4651 -597H4653C4653 -598.657 4651.66 -600 4650 -600V-598ZM-3469 -600C-3470.66 -600 -3472 -598.657 -3472 -597H-3470C-3470 -597.552 -3469.55 -598 -3469 -598V-600Z" fill="black" fill-opacity="0.1"/>
<g clip-path="url(#clip0_0_1)">
<rect width="1440" height="1024" transform="translate(-1372 -41)" fill="#F5F5F5"/>
<rect x="0.5" y="0.5" width="43" height="43" rx="15.5" stroke="black"/>
<path d="M11 31H25V24.031C25 20.148 21.866 17 18 17C14.134 17 11 20.148 11 24.031V31ZM18 15C22.97 15 27 19.043 27 24.031V33H9V24.031C9 19.043 13.03 15 18 15ZM15.5 34H20.5C20.5 34.663 20.2366 35.2989 19.7678 35.7678C19.2989 36.2366 18.663 36.5 18 36.5C17.337 36.5 16.7011 36.2366 16.2322 35.7678C15.7634 35.2989 15.5 34.663 15.5 34Z" fill="#272828"/>
<path d="M18 16C18 12.2615 18 10.3923 18.8038 9C19.3305 8.08788 20.0879 7.33046 21 6.80385C22.3923 6 24.2615 6 28 6C31.7385 6 33.6077 6 35 6.80385C35.9121 7.33046 36.6695 8.08788 37.1962 9C38 10.3923 38 12.2615 38 16C38 19.7385 38 21.6077 37.1962 23C36.6695 23.9121 35.9121 24.6695 35 25.1962C33.6077 26 31.7385 26 28 26C24.2615 26 22.3923 26 21 25.1962C20.0879 24.6695 19.3305 23.9121 18.8038 23C18 21.6077 18 19.7385 18 16Z" fill="#FF3E46"/>
<text fill="white" xml:space="preserve" style="white-space: pre" font-family="Roboto" font-size="14" letter-spacing="0em"><tspan x="24.0616" y="20.7852">8</tspan></text>
</g>
<defs>
<clipPath id="clip0_0_1">
<rect width="1440" height="1024" fill="white" transform="translate(-1372 -41)"/>
</clipPath>
</defs>
</svg>
