<svg width="44" height="44" viewBox="0 0 44 44" fill="none" xmlns="http://www.w3.org/2000/svg">
<rect width="44" height="44" fill="#F5F5F5"/>
<path d="M-4916 -583C-4916 -584.105 -4915.1 -585 -4914 -585H3205C3206.1 -585 3207 -584.105 3207 -583V3435C3207 3436.1 3206.1 3437 3205 3437H-4914C-4915.1 3437 -4916 3436.1 -4916 3435V-583Z" fill="white"/>
<path d="M-4914 -584H3205V-586H-4914V-584ZM3206 -583V3435H3208V-583H3206ZM3205 3436H-4914V3438H3205V3436ZM-4915 3435V-583H-4917V3435H-4915ZM-4914 3436C-4914.55 3436 -4915 3435.55 -4915 3435H-4917C-4917 3436.66 -4915.66 3438 -4914 3438V3436ZM3206 3435C3206 3435.55 3205.55 3436 3205 3436V3438C3206.66 3438 3208 3436.66 3208 3435H3206ZM3205 -584C3205.55 -584 3206 -583.552 3206 -583H3208C3208 -584.657 3206.66 -586 3205 -586V-584ZM-4914 -586C-4915.66 -586 -4917 -584.657 -4917 -583H-4915C-4915 -583.552 -4914.55 -584 -4914 -584V-586Z" fill="black" fill-opacity="0.1"/>
<g clip-path="url(#clip0_0_1)">
<rect width="1440" height="1024" transform="translate(-1303 -27)" fill="#F5F5F5"/>
<rect x="0.5" y="0.5" width="43" height="43" rx="15.5" stroke="black"/>
<path d="M22 22.75C18.83 22.75 16.25 20.17 16.25 17C16.25 13.83 18.83 11.25 22 11.25C25.17 11.25 27.75 13.83 27.75 17C27.75 20.17 25.17 22.75 22 22.75ZM22 12.75C19.66 12.75 17.75 14.66 17.75 17C17.75 19.34 19.66 21.25 22 21.25C24.34 21.25 26.25 19.34 26.25 17C26.25 14.66 24.34 12.75 22 12.75Z" fill="#272828"/>
<path d="M30.5901 32.75C30.1801 32.75 29.8401 32.41 29.8401 32C29.8401 28.55 26.3202 25.75 22.0002 25.75C17.6801 25.75 14.1602 28.55 14.1602 32C14.1602 32.41 13.8202 32.75 13.4102 32.75C13.0002 32.75 12.6602 32.41 12.6602 32C12.6602 27.73 16.8501 24.25 22.0002 24.25C27.1502 24.25 31.3401 27.73 31.3401 32C31.3401 32.41 31.0001 32.75 30.5901 32.75Z" fill="#272828"/>
</g>
<defs>
<clipPath id="clip0_0_1">
<rect width="1440" height="1024" fill="white" transform="translate(-1303 -27)"/>
</clipPath>
</defs>
</svg>
